<svg xmlns="http://www.w3.org/2000/svg" fill="none" viewBox="0 0 48 48" stroke-width="3" id="Circle-Clock--Streamline-Plump">
  <desc>
    Circle Clock Streamline Icon: https://streamlinehq.com
  </desc>
  <g id="circle-clock--clock-loading-measure-time-circle">
    <path id="Ellipse 19" fill="#CE946B" transform="matrix(1 0 0 -1 2 46)" d="M0 22a22 22 0 1 0 44 0 22 22 0 1 0-44 0"></path>
    <path id="Ellipse 20" stroke="#B4552D" stroke-linejoin="round" d="M46 24c0-12.1503-9.8497-22-22-22S2 11.8497 2 24s9.8497 22 22 22 22-9.8497 22-22Z"></path>
    <path id="Vector 1439" stroke="#B4552D" stroke-linecap="round" stroke-linejoin="round" d="M24 12v12l8 8"></path>
    <path id="Vector 4147" stroke="#B4552D" stroke-linecap="round" stroke-linejoin="round" d="M24 6.5v1"></path>
    <path id="Vector 4151" stroke="#B4552D" stroke-linecap="round" stroke-linejoin="round" d="m36.3743 11.625-.7071.7071"></path>
    <path id="Vector 4149" stroke="#B4552D" stroke-linecap="round" stroke-linejoin="round" d="m41.5 24-1 0"></path>
    <path id="Vector 4152" stroke="#B4552D" stroke-linecap="round" stroke-linejoin="round" d="m36.3743 36.3751-.7071-.7071"></path>
    <path id="Vector 4148" stroke="#B4552D" stroke-linecap="round" stroke-linejoin="round" d="M24 41.5v-1"></path>
    <path id="Vector 4153" stroke="#B4552D" stroke-linecap="round" stroke-linejoin="round" d="m11.6257 36.3751.7071-.7071"></path>
    <path id="Vector 4150" stroke="#B4552D" stroke-linecap="round" stroke-linejoin="round" d="m6.5 24 1 0"></path>
    <path id="Vector 4154" stroke="#B4552D" stroke-linecap="round" stroke-linejoin="round" d="m11.6257 11.625.7071.7071"></path>
  </g>
</svg>
